<?xml version="1.0" standalone="no"?>
<!DOCTYPE svg PUBLIC "-//W3C//DTD SVG 20010904//EN"
 "http://www.w3.org/TR/2001/REC-SVG-20010904/DTD/svg10.dtd">
<svg version="1.0" xmlns="http://www.w3.org/2000/svg"
 width="300.000000pt" height="300.000000pt" viewBox="0 0 300.000000 300.000000"
 preserveAspectRatio="xMidYMid meet">
<metadata>
Created by potrace 1.10, written by Peter Selinger 2001-2011
</metadata>
<g transform="translate(0.000000,300.000000) scale(0.100000,-0.100000)"
fill="#000000" stroke="none">
<path d="M2299 2379 c-79 -55 -152 -110 -161 -121 -36 -42 -24 -74 87 -233 58
-82 113 -156 122 -162 28 -22 81 -16 108 12 36 35 33 79 -11 143 -20 30 -33
56 -30 59 3 3 36 -9 73 -27 48 -23 92 -57 149 -114 128 -128 184 -259 184
-432 0 -167 -53 -303 -161 -418 -180 -193 -440 -254 -678 -159 -133 53 -255
160 -319 280 -41 77 -72 197 -72 278 0 348 -218 653 -548 768 -74 26 -106 31
-212 34 -237 9 -407 -53 -576 -210 -321 -298 -339 -795 -41 -1114 90 -96 215
-178 331 -217 15 -5 7 -14 -43 -51 -60 -44 -67 -56 -61 -110 3 -35 40 -65 80
-65 30 0 62 18 181 101 79 55 152 110 162 121 35 42 23 74 -88 233 -58 83
-113 156 -122 162 -28 22 -81 16 -108 -12 -36 -35 -33 -79 11 -143 20 -30 33
-56 30 -59 -3 -3 -36 9 -73 27 -141 69 -276 238 -317 397 -21 78 -21 228 0
306 36 141 143 287 268 369 97 63 200 91 331 92 94 0 121 -4 190 -28 204 -70
354 -230 405 -432 11 -42 20 -105 20 -139 0 -282 153 -555 390 -696 116 -69
225 -101 361 -107 191 -8 337 31 483 129 407 272 475 841 143 1196 -91 97
-214 178 -331 217 -17 6 -12 12 32 41 28 19 57 45 63 57 32 59 -6 128 -71 128
-30 0 -62 -18 -181 -101z"/>
<path d="M352 1678 c-17 -17 -17 -339 0 -356 7 -7 41 -12 84 -12 80 0 121 20
161 78 61 92 29 243 -61 286 -41 19 -166 22 -184 4z m164 -99 c14 -16 19 -36
19 -79 0 -71 -21 -100 -72 -100 l-33 0 0 100 0 100 33 0 c22 0 41 -8 53 -21z"/>
<path d="M702 1678 c-17 -17 -17 -339 0 -356 7 -7 44 -12 95 -12 71 0 84 3 93
19 14 27 13 37 -6 55 -9 10 -33 16 -60 16 -42 0 -44 1 -44 29 0 28 2 30 46 33
88 6 88 70 0 76 -44 3 -46 5 -46 33 0 28 2 29 44 29 27 0 51 6 60 16 19 18 20
28 6 55 -9 16 -22 19 -93 19 -51 0 -88 -5 -95 -12z"/>
<path d="M972 1678 c-19 -19 -14 -44 42 -203 46 -132 56 -151 80 -160 41 -14
58 12 111 172 48 148 52 179 23 197 -30 19 -51 -6 -83 -97 -16 -47 -33 -88
-36 -92 -4 -3 -19 31 -34 77 -15 46 -34 91 -43 101 -18 20 -43 22 -60 5z"/>
<path d="M1805 1676 c-16 -7 -45 -28 -62 -46 -107 -109 -40 -300 111 -317 146
-17 258 131 197 262 -43 94 -156 140 -246 101z m142 -100 c24 -21 28 -32 28
-76 0 -44 -4 -55 -28 -76 -66 -57 -167 -11 -167 76 0 87 101 133 167 76z"/>
<path d="M2142 1678 c-8 -8 -12 -62 -12 -178 0 -171 4 -190 41 -190 27 0 49
40 49 87 0 43 0 43 36 43 69 0 124 55 124 122 -1 81 -59 128 -159 128 -39 0
-72 -5 -79 -12z m143 -113 c0 -27 -4 -30 -32 -33 -32 -3 -33 -2 -33 33 0 35 1
36 33 33 28 -3 32 -6 32 -33z"/>
<path d="M2513 1670 c-39 -23 -53 -48 -53 -93 0 -49 30 -81 100 -107 67 -25
77 -34 60 -55 -17 -21 -60 -18 -95 5 -36 24 -58 25 -75 4 -22 -25 -1 -64 49
-91 81 -42 170 -22 206 48 34 65 -5 130 -100 167 -59 23 -73 52 -25 52 17 0
42 -7 55 -16 41 -27 84 2 69 48 -8 26 -75 58 -121 58 -21 0 -52 -9 -70 -20z"/>
</g>
</svg>
